<?xml version="1.0" standalone="no"?>
<!DOCTYPE svg PUBLIC "-//W3C//DTD SVG 20010904//EN"
 "http://www.w3.org/TR/2001/REC-SVG-20010904/DTD/svg10.dtd">
<svg version="1.0" xmlns="http://www.w3.org/2000/svg"
 width="222.000000pt" height="220.000000pt" viewBox="0 0 222.000000 220.000000"
 preserveAspectRatio="xMidYMid meet">

<g transform="translate(0.000000,220.000000) scale(0.100000,-0.100000)"
fill="#000000" stroke="none">
<path d="M545 1973 c-16 -2 -51 -11 -76 -19 -30 -9 -75 -14 -125 -12 l-79 3
-3 -39 c-3 -32 1 -43 19 -56 l22 -17 -32 -65 c-28 -56 -32 -74 -32 -150 -1
-95 20 -160 68 -210 l26 -27 -37 -32 -36 -33 0 -537 0 -537 138 -7 c113 -7
1583 1 1588 8 1 1 3 385 5 852 l4 850 -615 2 c-527 1 -623 3 -675 17 -57 15
-96 18 -160 9z m191 -111 c92 -47 145 -127 152 -229 8 -119 -53 -225 -162
-280 -117 -59 -273 -16 -350 96 -95 136 -51 329 91 403 69 35 77 37 158 34 47
-2 84 -10 111 -24z m933 -166 c9 -10 8 -16 -4 -26 -19 -16 -41 1 -32 24 8 20
21 20 36 2z m-368 -15 c-7 -5 -11 -14 -7 -20 13 -20 -13 -89 -37 -97 -12 -5
-26 -7 -31 -5 -5 1 -13 -4 -17 -11 -6 -9 -9 -10 -9 -1 0 9 -11 9 -45 -2 -25
-7 -54 -11 -65 -8 -11 3 -20 0 -20 -6 0 -6 -10 -11 -22 -11 -13 0 -30 -5 -38
-11 -13 -10 -13 -10 1 -6 9 3 16 -1 16 -8 0 -8 -7 -11 -15 -7 -11 4 -13 1 -7
-8 6 -10 4 -12 -8 -7 -10 3 -17 2 -17 -2 0 -5 -6 -11 -13 -14 -11 -4 -11 3 0
41 8 26 18 54 22 62 8 14 237 114 283 123 39 7 43 7 29 -2z m561 -26 c-4 -25
-18 -39 -37 -40 -5 -1 -9 -7 -7 -14 1 -7 -2 -10 -7 -7 -5 4 -12 2 -15 -3 -4
-5 2 -12 11 -14 14 -4 13 -5 -4 -6 -16 -1 -21 -6 -17 -16 4 -9 0 -15 -10 -15
-22 0 -20 -20 2 -20 28 -1 -49 -31 -103 -40 -28 -4 -79 -22 -115 -38 -157 -73
-219 -87 -246 -55 -26 31 -92 44 -133 27 -35 -15 -71 -67 -71 -105 0 -24 -10
-29 -197 -93 -109 -37 -236 -78 -283 -91 -47 -13 -102 -31 -124 -40 -21 -9
-66 -25 -98 -35 l-60 -19 6 31 c3 17 6 54 6 84 0 52 0 53 36 63 20 6 45 18 55
27 16 15 24 15 63 4 105 -29 242 5 339 84 23 19 60 38 81 42 22 4 83 22 135
41 53 18 135 47 182 64 l86 30 36 -36 c37 -37 55 -42 90 -23 34 18 46 40 47
84 0 40 2 42 38 51 21 5 47 6 57 2 33 -13 74 -10 108 8 18 9 41 18 51 20 11 2
22 6 25 10 3 3 -4 3 -16 0 -15 -3 -23 -1 -23 8 0 17 14 26 60 41 53 18 58 17
52 -11z m41 -260 c-2 -37 -5 -70 -7 -72 -3 -3 -45 -19 -94 -37 l-89 -33 24 36
c24 35 27 71 9 112 -6 13 7 21 66 41 40 14 78 24 83 23 6 -1 9 -31 8 -70z
m-348 -77 c13 -41 56 -72 100 -72 19 0 35 -1 35 -3 0 -1 -35 -13 -77 -27 -43
-13 -154 -52 -248 -86 -269 -97 -384 -129 -472 -130 l-33 0 0 -191 0 -190 30
-10 30 -11 0 -134 c0 -161 3 -158 -133 -152 -117 6 -117 6 -117 163 0 110 2
122 21 139 21 17 21 24 18 236 l-4 218 60 17 c33 9 127 39 208 66 139 45 154
48 221 43 77 -7 79 -6 134 65 14 18 151 76 212 90 3 0 10 -13 15 -31z m-321
16 c22 -8 20 -41 -2 -53 -13 -7 -23 -6 -30 1 -16 16 -15 45 1 51 6 3 13 6 14
6 1 1 8 -2 17 -5z m666 -162 l0 -68 -47 -13 c-27 -7 -75 -21 -108 -31 -33 -10
-92 -28 -131 -40 l-72 -20 -7 -165 c-8 -177 -1 -218 36 -228 18 -5 19 -14 17
-144 l-3 -138 -113 -3 -112 -3 -10 26 c-11 29 -14 223 -4 249 3 9 12 16 19 16
24 0 28 33 31 245 l3 210 153 53 c286 98 303 104 318 113 27 15 30 10 30 -59z
m7 -487 c2 -386 9 -365 -127 -365 -78 0 -91 2 -100 19 -14 26 -13 261 0 261 6
0 22 11 35 25 23 22 25 32 25 118 0 52 3 128 6 170 8 85 3 81 114 85 l45 2 2
-315z m-1387 122 c0 -177 4 -197 41 -197 13 0 17 -16 23 -92 8 -122 7 -170 -3
-187 -7 -11 -33 -14 -102 -14 -88 0 -93 1 -116 27 -23 27 -23 31 -23 245 0
120 3 252 6 294 l7 76 36 9 c20 6 57 10 84 11 l47 1 0 -173z m676 15 c-8 -174
-2 -206 38 -216 l26 -6 0 -135 c0 -118 -2 -135 -17 -143 -28 -15 -212 0 -223
18 -5 8 -10 68 -10 133 0 101 3 122 19 143 16 20 20 50 26 194 l7 170 70 0 71
0 -7 -158z"/>
<path d="M528 1760 c-149 -79 -115 -283 55 -325 75 -19 160 40 192 134 25 73
-12 158 -86 196 -39 21 -117 18 -161 -5z m112 -75 c58 -30 67 -90 20 -137 -35
-35 -69 -33 -109 7 -36 35 -33 81 7 117 37 32 43 33 82 13z"/>
</g>
</svg>
